# xmcd
#
# Track frame offsets: 
#        175
#        15162
#        27075
#        39237
#        53300
#        76050
#        92902
#        108275
#        122912
#        138800
#        154250
#        168525
#        185412
#        201200
#        212025
#
# Disc length: 3054 seconds
#
# Revision: 0
# Processed by: cddbd v1.5.1PL0 Copyright (c) Steve Scherf et al.
# Submitted via: ExactAudioCopy v0.95a3
#
DISCID=b20bec0f
DTITLE=Вячеслав Малежик - Любимые Песни Нашей Компании
DYEAR=1995
DGENRE=Pop
TTITLE0=Любимые Песни Нашей Общаги
TTITLE1=Я, Он , Она И "Beatles"
TTITLE2=Говори
TTITLE3=Первокурсница
TTITLE4=Там, Где Белые Берёзы...
TTITLE5=У Тебя Сегодня Свадьба
TTITLE6=Снегирь
TTITLE7=Блюз Для Тебя
TTITLE8=Эхо Любви
TTITLE9=Испеки Ты Мне, Тёща
TTITLE10=Пингвин
TTITLE11=Утки Крякали...
TTITLE12=Отзовись
TTITLE13=Роза
TTITLE14=Моё Алиби
EXTD=
EXTT0=
EXTT1=
EXTT2=
EXTT3=
EXTT4=
EXTT5=
EXTT6=
EXTT7=
EXTT8=
EXTT9=
EXTT10=
EXTT11=
EXTT12=
EXTT13=
EXTT14=
PLAYORDER=
